<svg width="32" height="32" viewBox="0 0 32 32" fill="none" xmlns="http://www.w3.org/2000/svg">
<rect width="32" height="32" rx="3" fill="#041827"/>
<path d="M19.0339 9.93314C19.5981 9.93314 20.0747 10.2967 20.2541 10.7998H24.7469C24.9263 10.2967 25.4029 9.93314 25.9671 9.93314C26.6838 9.93314 27.2671 10.5164 27.2671 11.2331C27.2671 11.9498 26.6838 12.5331 25.9671 12.5331C25.4029 12.5331 24.9263 12.1695 24.7469 11.6664H20.2537C20.0743 12.1695 19.5976 12.5331 19.0334 12.5331C18.3167 12.5331 17.7334 11.9498 17.7334 11.2331C17.7334 10.5164 18.3171 9.93314 19.0339 9.93314ZM25.9671 11.6664C26.2059 11.6664 26.4004 11.4723 26.4004 11.2331C26.4004 10.9939 26.2059 10.7998 25.9671 10.7998C25.7283 10.7998 25.5338 10.9939 25.5338 11.2331C25.5338 11.4723 25.7283 11.6664 25.9671 11.6664ZM19.0339 11.6664C19.2726 11.6664 19.4672 11.4723 19.4672 11.2331C19.4672 10.9939 19.2726 10.7998 19.0339 10.7998C18.7951 10.7998 18.6005 10.9939 18.6005 11.2331C18.6005 11.4723 18.7951 11.6664 19.0339 11.6664Z" fill="#00B2FF"/>
<path d="M15.5657 12.6128V9.93315C15.5657 9.81788 15.6112 9.70782 15.6927 9.62679L17.426 7.89351C17.507 7.81204 17.6175 7.76654 17.7324 7.76654H19.1121C19.2915 7.26346 19.7681 6.8999 20.3323 6.8999C21.0491 6.8999 21.6323 7.48315 21.6323 8.19986C21.6323 8.91658 21.0491 9.49983 20.3323 9.49983C19.7681 9.49983 19.2915 9.13627 19.1121 8.63319H17.9118L16.4324 10.1125V12.6128C16.9355 12.7922 17.299 13.2689 17.299 13.833C17.299 14.5497 16.7158 15.133 15.9991 15.133C15.2823 15.133 14.6991 14.5497 14.6991 13.833C14.6991 13.2689 15.0626 12.7922 15.5657 12.6128ZM20.3323 8.63319C20.5711 8.63319 20.7657 8.43906 20.7657 8.19986C20.7657 7.96067 20.5711 7.76654 20.3323 7.76654C20.0936 7.76654 19.899 7.96067 19.899 8.19986C19.899 8.43906 20.0936 8.63319 20.3323 8.63319ZM15.9991 14.2664C16.2378 14.2664 16.4324 14.0722 16.4324 13.833C16.4324 13.5938 16.2378 13.3997 15.9991 13.3997C15.7603 13.3997 15.5657 13.5938 15.5657 13.833C15.5657 14.0722 15.7603 14.2664 15.9991 14.2664Z" fill="#00B2FF"/>
<path d="M7.76677 14.2663C7.96696 14.2663 8.15416 14.3153 8.32359 14.3968L9.06675 13.6536V9.49981C9.06675 9.38455 9.11225 9.27449 9.19372 9.19346L13.5305 4.85678C13.449 4.68735 13.4 4.50016 13.4 4.29996C13.4 3.58325 13.9833 3 14.7 3C15.4167 3 16 3.58325 16 4.29996C16 5.01668 15.4167 5.59993 14.7 5.59993C14.4998 5.59993 14.3126 5.55096 14.1432 5.4695L9.93341 9.67921V13.833C9.93341 13.9483 9.88791 14.0583 9.80644 14.1394L8.93632 15.0095C9.01779 15.1789 9.06675 15.3661 9.06675 15.5663C9.06675 16.283 8.48349 16.8663 7.76677 16.8663C7.05004 16.8663 6.46678 16.283 6.46678 15.5663C6.46678 14.8496 7.05004 14.2663 7.76677 14.2663ZM14.7 4.73328C14.9388 4.73328 15.1333 4.53916 15.1333 4.29996C15.1333 4.06077 14.9388 3.86664 14.7 3.86664C14.4613 3.86664 14.2667 4.06077 14.2667 4.29996C14.2667 4.53916 14.4613 4.73328 14.7 4.73328ZM7.76677 15.9996C8.00553 15.9996 8.2001 15.8055 8.2001 15.5663C8.2001 15.3271 8.00553 15.133 7.76677 15.133C7.528 15.133 7.33344 15.3271 7.33344 15.5663C7.33344 15.8055 7.528 15.9996 7.76677 15.9996Z" fill="#00B2FF"/>
<path d="M3.86638 9.14622V7.33321C3.86638 7.21795 3.91188 7.10788 3.99334 7.02685L7.02664 3.9936C7.10767 3.91214 7.21817 3.86664 7.333 3.86664H9.57937C9.75877 3.36356 10.2354 3 10.7996 3C11.5163 3 12.0996 3.58325 12.0996 4.29996C12.0996 5.01668 11.5163 5.59993 10.7996 5.59993C10.2354 5.59993 9.75877 5.23637 9.57937 4.73328H7.5124L4.73303 7.5126V9.14622C5.23613 9.32562 5.59969 9.80227 5.59969 10.3665C5.59969 11.0832 5.01643 11.6664 4.29971 11.6664C3.58298 11.6664 2.99972 11.0832 2.99972 10.3665C2.99972 9.80227 3.36328 9.32562 3.86638 9.14622ZM10.7996 4.73328C11.0384 4.73328 11.233 4.53916 11.233 4.29996C11.233 4.06077 11.0384 3.86664 10.7996 3.86664C10.5609 3.86664 10.3663 4.06077 10.3663 4.29996C10.3663 4.53916 10.5609 4.73328 10.7996 4.73328ZM4.29971 10.7998C4.53847 10.7998 4.73303 10.6056 4.73303 10.3665C4.73303 10.1273 4.53847 9.93313 4.29971 9.93313C4.06094 9.93313 3.86638 10.1273 3.86638 10.3665C3.86638 10.6056 4.06094 10.7998 4.29971 10.7998Z" fill="#00B2FF"/>
<path d="M9.93221 26.4795V20.2531C9.42955 20.0737 9.06599 19.597 9.06599 19.0329C9.06599 18.3161 9.64925 17.7329 10.366 17.7329C10.9302 17.7329 11.4068 18.0964 11.5862 18.5995H16.079C16.2584 18.0964 16.735 17.7329 17.2992 17.7329C17.8634 17.7329 18.3401 18.0964 18.5195 18.5995H21.0198L22.6296 16.9897C22.5481 16.8203 22.4992 16.6331 22.4992 16.4329C22.4992 15.7162 23.0824 15.133 23.7991 15.133C24.5159 15.133 25.0991 15.7162 25.0991 16.4329C25.0991 17.1496 24.5159 17.7329 23.7991 17.7329C23.5989 17.7329 23.4117 17.6839 23.2423 17.6025L21.5055 19.3392C21.4245 19.4207 21.314 19.4662 21.1992 19.4662H18.5195C18.3401 19.9693 17.8634 20.3328 17.2992 20.3328C16.735 20.3328 16.2584 19.9693 16.079 19.4662H11.5858C11.4549 19.8332 11.1659 20.1222 10.7989 20.2531V26.4795C11.302 26.6589 11.6655 27.1355 11.6655 27.6997C11.6655 28.4164 11.0823 28.9997 10.3655 28.9997C9.64882 28.9997 9.06556 28.4164 9.06556 27.6997C9.06556 27.1355 9.42912 26.6589 9.93221 26.4795ZM23.7991 16.8662C24.0379 16.8662 24.2325 16.6721 24.2325 16.4329C24.2325 16.1937 24.0379 15.9996 23.7991 15.9996C23.5604 15.9996 23.3658 16.1937 23.3658 16.4329C23.3658 16.6721 23.5604 16.8662 23.7991 16.8662ZM17.2992 19.4662C17.538 19.4662 17.7325 19.272 17.7325 19.0329C17.7325 18.7937 17.538 18.5995 17.2992 18.5995C17.0605 18.5995 16.8659 18.7937 16.8659 19.0329C16.8659 19.272 17.0605 19.4662 17.2992 19.4662ZM10.366 28.1326C10.6047 28.1326 10.7993 27.9385 10.7993 27.6993C10.7993 27.4601 10.6047 27.2659 10.366 27.2659C10.1272 27.2659 9.93265 27.4601 9.93265 27.6993C9.93265 27.9385 10.1272 28.1326 10.366 28.1326ZM10.366 19.4662C10.6047 19.4662 10.7993 19.272 10.7993 19.0329C10.7993 18.7937 10.6047 18.5995 10.366 18.5995C10.1272 18.5995 9.93265 18.7937 9.93265 19.0329C9.93265 19.272 10.1272 19.4662 10.366 19.4662Z" fill="#00B2FF"/>
<path d="M12.1 11.7461V10.3665C12.1 10.2512 12.1455 10.1411 12.227 10.0601L17.4304 4.85678C17.3489 4.68735 17.3 4.50016 17.3 4.29996C17.3 3.58325 17.8832 3 18.6 3C19.1641 3 19.6408 3.36356 19.8202 3.86664H21.6333C21.8724 3.86664 22.0666 4.06034 22.0666 4.29996V5.42053L23.6764 7.03032C23.8458 6.94885 24.033 6.89989 24.2332 6.89989C24.9499 6.89989 25.5332 7.48314 25.5332 8.19985C25.5332 8.91656 24.9499 9.49981 24.2332 9.49981C23.5165 9.49981 22.9332 8.91656 22.9332 8.19985C22.9332 7.99965 22.9822 7.81246 23.0637 7.64303L21.3269 5.90628C21.2454 5.82525 21.1999 5.71519 21.1999 5.59992V4.73328H19.8202C19.6408 5.23637 19.1641 5.59992 18.6 5.59992C18.3998 5.59992 18.2126 5.55096 18.0431 5.46949L12.9667 10.5458V11.7461C13.4698 11.9255 13.8333 12.4022 13.8333 12.9664C13.8333 13.6831 13.2501 14.2663 12.5334 14.2663C11.8166 14.2663 11.2334 13.6831 11.2334 12.9664C11.2334 12.4022 11.5969 11.9255 12.1 11.7461ZM24.2332 8.63317C24.472 8.63317 24.6665 8.43904 24.6665 8.19985C24.6665 7.96066 24.472 7.76653 24.2332 7.76653C23.9945 7.76653 23.7999 7.96066 23.7999 8.19985C23.7999 8.43904 23.9945 8.63317 24.2332 8.63317ZM18.6 4.73328C18.8387 4.73328 19.0333 4.53916 19.0333 4.29996C19.0333 4.06077 18.8387 3.86664 18.6 3.86664C18.3612 3.86664 18.1666 4.06077 18.1666 4.29996C18.1666 4.53916 18.3612 4.73328 18.6 4.73328ZM12.5334 13.3997C12.7721 13.3997 12.9667 13.2056 12.9667 12.9664C12.9667 12.7272 12.7721 12.5331 12.5334 12.5331C12.2946 12.5331 12.1 12.7272 12.1 12.9664C12.1 13.2056 12.2946 13.3997 12.5334 13.3997Z" fill="#00B2FF"/>
<path d="M13.4002 15.133C13.9644 15.133 14.441 15.4965 14.6204 15.9996H19.7207L22.1937 13.5267C22.2747 13.4452 22.3852 13.3997 22.5001 13.3997H27.0873L28.1333 12.3537V8.81256L24.7902 5.46949C24.6208 5.55096 24.4336 5.59992 24.2334 5.59992C23.5167 5.59992 22.9334 5.01667 22.9334 4.29996C22.9334 3.58325 23.5167 3 24.2334 3C24.9501 3 25.5334 3.58325 25.5334 4.29996C25.5334 4.50016 25.4844 4.68735 25.4029 4.85678L28.873 8.32681C28.9545 8.40784 29 8.51791 29 8.63317V12.5331C29 12.6483 28.9545 12.7584 28.873 12.8394L27.5731 14.1394C27.492 14.2208 27.3815 14.2663 27.2667 14.2663H22.6795L20.2065 16.7393C20.1254 16.8208 20.0149 16.8663 19.9001 16.8663H14.6204C14.441 17.3693 13.9644 17.7329 13.4002 17.7329C12.6835 17.7329 12.1002 17.1497 12.1002 16.4329C12.1002 15.7162 12.6835 15.133 13.4002 15.133ZM24.2334 3.86664C23.9946 3.86664 23.8001 4.06077 23.8001 4.29996C23.8001 4.53916 23.9946 4.73328 24.2334 4.73328C24.4722 4.73328 24.6667 4.53916 24.6667 4.29996C24.6667 4.06077 24.4722 3.86664 24.2334 3.86664ZM13.4002 16.8663C13.639 16.8663 13.8335 16.6721 13.8335 16.4329C13.8335 16.1937 13.639 15.9996 13.4002 15.9996C13.1614 15.9996 12.9669 16.1937 12.9669 16.4329C12.9669 16.6721 13.1614 16.8663 13.4002 16.8663Z" fill="#00B2FF"/>
<path d="M4.2998 13.3997C4.5 13.3997 4.68719 13.4487 4.85662 13.5301L6.46644 11.9204V9.4201C5.96334 9.2407 5.59978 8.76405 5.59978 8.19986C5.59978 7.48315 6.18304 6.8999 6.89977 6.8999C7.61649 6.8999 8.19975 7.48315 8.19975 8.19986C8.19975 8.76405 7.83619 9.2407 7.33309 9.4201V12.0998C7.33309 12.215 7.2876 12.3251 7.20613 12.4061L5.46935 14.1429C5.55082 14.3123 5.59978 14.4995 5.59978 14.6997C5.59978 15.2639 5.23622 15.7405 4.73313 15.9199V16.2536L8.07279 19.5932C8.15425 19.6742 8.19975 19.7843 8.19975 19.8995V20.4126C8.70284 20.592 9.06641 21.0686 9.06641 21.6328C9.06641 22.197 8.70284 22.6736 8.19975 22.853V23.8796C8.70284 24.059 9.06641 24.5356 9.06641 25.0998C9.06641 25.8165 8.48315 26.3998 7.76642 26.3998C7.0497 26.3998 6.46644 25.8165 6.46644 25.0998C6.46644 24.5356 6.83 24.059 7.33309 23.8796V22.853C6.83 22.6736 6.46644 22.197 6.46644 21.6328C6.46644 21.0686 6.83 20.592 7.33309 20.4126V20.0789L3.99343 16.7393C3.91197 16.6583 3.86647 16.5482 3.86647 16.433V15.9199C3.36338 15.7405 2.99981 15.2639 2.99981 14.6997C2.99981 13.983 3.58307 13.3997 4.2998 13.3997ZM6.89977 8.63319C7.13853 8.63319 7.33309 8.43906 7.33309 8.19986C7.33309 7.96067 7.13853 7.76654 6.89977 7.76654C6.661 7.76654 6.46644 7.96067 6.46644 8.19986C6.46644 8.43906 6.661 8.63319 6.89977 8.63319ZM7.76642 25.5327C8.00519 25.5327 8.19975 25.3386 8.19975 25.0994C8.19975 24.8602 8.00519 24.6661 7.76642 24.6661C7.52766 24.6661 7.33309 24.8602 7.33309 25.0994C7.33309 25.3386 7.52766 25.5327 7.76642 25.5327ZM7.76642 22.0661C8.00519 22.0661 8.19975 21.872 8.19975 21.6328C8.19975 21.3936 8.00519 21.1995 7.76642 21.1995C7.52766 21.1995 7.33309 21.3936 7.33309 21.6328C7.33309 21.872 7.52766 22.0661 7.76642 22.0661ZM4.2998 15.133C4.53856 15.133 4.73313 14.9389 4.73313 14.6997C4.73313 14.4605 4.53856 14.2664 4.2998 14.2664C4.06103 14.2664 3.86647 14.4605 3.86647 14.6997C3.86647 14.9389 4.06103 15.133 4.2998 15.133Z" fill="#00B2FF"/>
</svg>
